PathFileType	4	(X/Y/Z)	s05c0202.trc
DataRate	CameraRate	NumFrames	NumMarkers	Units	OrigDataRate	OrigDataStartFrame	OrigNumFrames
200	200	5	49	mm	200	1750	2000
Frame#	Time	racr			lacr			c7			jug			rlel			rdr			llel			ldr			s2			lic			ric			lasi			rasi			rpsi			lpsi			rgt			lgt			rth1			rth2			rth3			rth4			rlfc			rsh1			rsh2			rsh3			rsh4			rlmal			rmmal			rcal			rtoe			rmt5			lth1			lth2			lth4			lth3			llfc			lmfc			lsh1			lsh2			lsh3			lsh4			llmal			lmmal			lcal			ltoe			lmt5			SBIKE			LBIKE			RBIKE			
		X1	Y1	Z1	X2	Y2	Z2	X3	Y3	Z3	X4	Y4	Z4	X5	Y5	Z5	X6	Y6	Z6	X7	Y7	Z7	X8	Y8	Z8	X9	Y9	Z9	X10	Y10	Z10	X11	Y11	Z11	X12	Y12	Z12	X13	Y13	Z13	X14	Y14	Z14	X15	Y15	Z15	X16	Y16	Z16	X17	Y17	Z17	X18	Y18	Z18	X19	Y19	Z19	X20	Y20	Z20	X21	Y21	Z21	X22	Y22	Z22	X23	Y23	Z23	X24	Y24	Z24	X25	Y25	Z25	X26	Y26	Z26	X27	Y27	Z27	X28	Y28	Z28	X29	Y29	Z29	X30	Y30	Z30	X31	Y31	Z31	X32	Y32	Z32	X33	Y33	Z33	X34	Y34	Z34	X35	Y35	Z35	X36	Y36	Z36	X37	Y37	Z37	X38	Y38	Z38	X39	Y39	Z39	X40	Y40	Z40	X41	Y41	Z41	X42	Y42	Z42	X43	Y43	Z43	X44	Y44	Z44	X45	Y45	Z45	X46	Y46	Z46	X47	Y47	Z47	X48	Y48	Z48	X49	Y49	Z49	
1750	8.7500	508.200017	1246.175017	-185.889932	502.791827	1209.776154	-448.753538	486.189827	1317.986289	-330.070870	419.868652	1170.948466	-305.687419	481.558185	1069.124477	35.043723	662.306335	961.090635	-72.115132	470.747057	1017.101658	-675.073965	640.444163	937.305895	-502.897878	-97.933134	1188.402607	-270.340370	29.932134	1189.364522	-420.655822	63.131513	1197.374944	-138.931937	74.276300	1137.394240	-382.185396	93.799543	1130.931288	-168.809007	-56.687106	1235.129475	-231.502763	-63.364152	1237.594937	-316.333306	-3.844736	1062.227479	-109.386543	-16.441956	1110.977375	-447.748531	65.736510	957.280599	-97.615242	125.392162	890.991171	-99.676677	142.522615	804.564047	-104.999068	156.634141	907.438106	-110.769597	209.549652	671.604523	-126.154061	139.732939	588.940004	-96.794114	123.553423	502.030946	-106.702966	70.453829	435.048973	-107.717176	151.739213	491.592996	-130.606039	22.915516	304.845261	-112.700647	46.340333	327.556494	-193.525987	-50.985162	296.469042	-161.756733	215.489392	166.267441	-154.790478	112.169508	182.458132	-91.407254	103.485772	1046.636429	-453.428022	189.636053	1047.309710	-444.938782	198.178886	1079.456269	-425.496602	266.783998	999.942655	-438.822660	397.715438	932.383357	-404.046359	379.838801	911.722389	-293.947637	322.979807	835.006920	-428.728310	299.229777	750.930905	-427.174352	235.078892	689.587772	-431.579479	327.678675	734.261439	-407.537692	178.805163	573.935467	-432.374191	210.627648	594.277052	-355.623046	111.253100	537.494219	-393.974704	399.196916	480.268630	-405.960213	288.042684	468.563307	-467.301566	-220.553934	909.994354	-275.369435	-53.611647	79.097859	-475.051801	-53.506277	79.178991	-77.440600	
1751	8.7550	508.152553	1245.753889	-186.404089	502.418620	1209.843156	-449.171001	485.979370	1318.031713	-330.476160	419.601970	1171.027168	-306.056894	481.332289	1068.896641	34.355532	662.717529	961.069388	-71.803518	469.244428	1016.376838	-674.654964	640.064428	937.201912	-502.648412	-98.343093	1188.424184	-269.936435	29.280150	1189.104096	-420.778770	63.247139	1197.278775	-138.999430	73.545285	1136.892451	-382.727085	94.025307	1130.757960	-168.718826	-56.636875	1234.834517	-231.069545	-63.677184	1237.509583	-316.077808	-2.291999	1062.108986	-109.096050	-17.982843	1110.225528	-447.184858	70.362494	959.051123	-98.520799	131.586284	894.210784	-101.410499	150.868317	808.247890	-106.202929	162.033760	911.404657	-113.852179	217.850955	675.794725	-127.005104	146.177264	594.756114	-97.749852	127.441093	508.429163	-107.451866	72.406703	442.928030	-108.031989	155.054639	496.991268	-131.578393	20.418781	314.897730	-112.665228	44.384870	336.343143	-193.655112	-53.788580	309.104177	-161.798577	207.513439	168.698093	-154.885618	104.993082	189.159925	-91.483164	101.873610	1043.892969	-454.017013	188.009094	1043.293409	-445.915437	197.168672	1075.354309	-426.678596	264.440655	994.698216	-440.021390	394.175501	924.900964	-405.773569	376.837783	904.339291	-296.230604	320.457000	825.825045	-430.481823	298.682009	741.243934	-428.434809	235.998157	678.321652	-432.402630	327.543409	725.351506	-408.842725	182.519654	562.294395	-432.752381	213.892524	583.595368	-355.913990	115.843801	523.533048	-394.053072	406.033504	477.116493	-406.471205	295.352717	461.049391	-467.755031	-220.444507	910.002596	-275.691448	-53.349267	79.225700	-475.254712	-53.543613	79.210376	-77.446431	
1752	8.7600	508.106730	1245.478707	-186.783671	502.088519	1210.217152	-449.559847	485.823021	1318.209107	-330.771385	419.369321	1171.217857	-306.491715	481.133483	1068.634739	33.597293	663.098803	960.959696	-71.581427	467.764067	1015.752422	-674.032711	639.727340	937.215044	-502.340383	-99.020530	1188.035693	-269.217973	28.557193	1188.730991	-421.130415	63.283757	1196.917797	-139.199028	72.737519	1135.954054	-383.077436	94.314209	1130.458255	-168.581875	-56.749493	1234.437113	-230.817188	-64.151854	1237.109159	-315.753463	-0.769559	1061.977088	-108.813684	-19.636716	1109.068379	-446.663243	74.857083	960.790105	-99.509538	137.744412	897.705030	-103.002657	159.032456	812.183176	-107.378754	167.232676	914.993925	-116.956579	226.465951	680.226331	-128.013912	152.813817	600.630680	-98.701874	131.542530	514.884017	-108.099396	74.699333	450.950094	-108.334305	158.699976	502.611991	-132.438604	18.479440	325.100296	-112.353768	43.062520	345.534545	-193.640538	-55.963808	321.981241	-161.645864	199.863724	171.760016	-154.891562	98.218623	196.093557	-91.586631	100.135950	1040.846670	-454.584773	186.239795	1038.879976	-446.944655	196.025507	1070.900762	-427.912140	261.968589	989.169982	-441.377148	390.493761	917.224746	-407.627748	373.280119	896.457773	-298.038397	317.903310	816.225682	-432.003099	298.367146	731.141223	-429.529092	237.277289	666.602610	-433.125065	327.662905	716.120864	-410.001590	186.527072	550.629838	-433.169217	217.587002	573.052026	-356.068182	120.987831	509.814275	-393.732832	412.651462	473.011117	-407.211940	302.260634	452.990695	-468.105275	-220.326220	910.034342	-275.943510	-53.348437	79.192574	-475.278223	-53.543533	79.181841	-77.463191	
1753	8.7650	508.056595	1245.292811	-187.049848	501.875515	1210.735296	-449.850876	485.691418	1318.484565	-330.934417	419.216633	1171.469169	-306.870868	480.982164	1068.317766	32.877337	663.437198	960.809278	-71.464765	466.390443	1015.218829	-673.226812	639.414607	937.362565	-502.028293	-99.412762	1187.391654	-268.613055	28.069564	1188.335382	-421.653979	63.494935	1196.217331	-139.270547	72.002095	1134.871265	-383.466081	94.513904	1130.190821	-168.550369	-56.941248	1233.908306	-230.529635	-64.532815	1236.386380	-315.604779	0.456331	1061.654674	-108.776164	-21.279712	1107.713319	-446.223642	79.374536	962.835280	-100.628794	143.623274	901.308294	-104.559311	166.912282	816.365423	-108.672553	172.604176	919.043276	-119.525713	234.938981	684.737781	-129.130978	159.523909	606.689505	-99.634540	135.798092	521.565203	-108.800374	77.230865	459.188650	-108.480488	162.560348	508.603371	-133.170662	17.030085	335.550011	-111.993852	42.268661	355.039434	-193.451716	-57.410046	335.083550	-161.332539	192.571192	175.297227	-154.851057	91.875488	203.431166	-91.585899	98.294305	1037.446752	-455.190594	184.435686	1034.088352	-447.955418	194.838626	1066.218278	-429.348337	259.507445	983.199259	-442.905106	386.776355	909.733402	-409.640637	370.147569	888.993049	-300.110078	315.393099	806.451570	-433.351302	298.125449	720.830393	-430.582815	238.877629	654.681587	-433.794334	327.905689	706.734161	-410.936932	190.549006	538.918599	-433.362114	221.788171	562.182825	-356.390207	126.359591	496.415676	-392.955542	418.891779	467.846511	-408.445433	308.736872	444.478463	-468.451707	-220.295425	909.989295	-275.919028	-53.353384	79.164560	-475.273806	-53.517771	79.180189	-77.468519	
1754	8.7700	507.999558	1245.329829	-187.275324	501.691329	1211.488502	-450.076232	485.550075	1318.949245	-331.017031	419.100354	1171.882717	-307.210016	480.905302	1067.995492	32.182811	663.681056	960.615510	-71.497891	465.120481	1014.857813	-672.269834	639.102981	937.513214	-501.709977	-99.765796	1186.324006	-268.049821	27.291215	1187.092985	-421.601608	63.587267	1195.622029	-139.465963	71.291635	1133.634633	-383.847555	94.669682	1129.595320	-168.484411	-57.201119	1233.020843	-230.272866	-65.080437	1235.476011	-315.314870	2.053687	1061.379155	-108.538827	-22.942157	1105.893594	-445.749793	83.582986	965.098017	-101.606653	149.271637	904.878859	-105.956168	174.456277	820.495866	-109.543801	177.647261	923.674481	-120.806004	243.300498	689.405341	-130.229654	166.251694	612.823486	-100.506069	140.272771	528.370457	-109.309468	79.989749	467.517457	-108.715031	166.449184	514.675517	-133.968372	16.310029	345.899416	-111.980758	41.922121	364.761486	-193.126615	-58.179352	348.323128	-160.865495	185.562268	179.076073	-155.004168	86.202947	211.085373	-91.572190	96.405250	1033.836825	-455.879681	182.463914	1029.234190	-449.236906	193.586865	1061.375224	-430.996589	256.865494	977.214242	-444.349784	383.035618	901.561317	-411.431880	367.370347	881.668074	-302.064590	312.817058	796.396106	-435.470948	298.140569	710.380447	-431.523970	240.695574	642.793665	-434.595752	328.180002	697.331881	-411.729575	194.836970	527.185023	-432.871090	226.059422	551.539386	-356.370893	131.845145	483.515949	-391.917907	424.794276	461.740852	-409.526353	314.817674	435.521215	-468.694822	-220.268461	909.953397	-275.825588	-53.346067	79.172969	-475.255045	-53.519045	79.152717	-77.471451	
